<svg xmlns="http://www.w3.org/2000/svg" xmlns:xlink="http://www.w3.org/1999/xlink" width="96" zoomAndPan="magnify" viewBox="0 0 72 30.000001" height="40" preserveAspectRatio="xMidYMid meet" version="1.0"><defs><g/></defs><g fill="#000000" fill-opacity="1"><g transform="translate(4.930947, 19.233873)"><g><path d="M 7.53125 -10.1875 L 7.53125 -8.203125 L 3.375 -8.203125 L 3.375 -6.046875 L 6.484375 -6.046875 L 6.484375 -4.125 L 3.375 -4.125 L 3.375 0 L 0.90625 0 L 0.90625 -10.1875 Z M 7.53125 -10.1875 "/></g></g></g><g fill="#000000" fill-opacity="1"><g transform="translate(12.429634, 19.233873)"><g><path d="M 5.71875 0.109375 C 4.757812 0.109375 3.878906 -0.113281 3.078125 -0.5625 C 2.285156 -1.007812 1.65625 -1.628906 1.1875 -2.421875 C 0.71875 -3.222656 0.484375 -4.125 0.484375 -5.125 C 0.484375 -6.125 0.71875 -7.019531 1.1875 -7.8125 C 1.65625 -8.601562 2.285156 -9.21875 3.078125 -9.65625 C 3.878906 -10.101562 4.757812 -10.328125 5.71875 -10.328125 C 6.675781 -10.328125 7.550781 -10.101562 8.34375 -9.65625 C 9.144531 -9.21875 9.773438 -8.601562 10.234375 -7.8125 C 10.703125 -7.019531 10.9375 -6.125 10.9375 -5.125 C 10.9375 -4.125 10.703125 -3.222656 10.234375 -2.421875 C 9.765625 -1.628906 9.132812 -1.007812 8.34375 -0.5625 C 7.550781 -0.113281 6.675781 0.109375 5.71875 0.109375 Z M 5.71875 -2.15625 C 6.53125 -2.15625 7.179688 -2.425781 7.671875 -2.96875 C 8.160156 -3.507812 8.40625 -4.226562 8.40625 -5.125 C 8.40625 -6.019531 8.160156 -6.734375 7.671875 -7.265625 C 7.179688 -7.804688 6.53125 -8.078125 5.71875 -8.078125 C 4.894531 -8.078125 4.238281 -7.8125 3.75 -7.28125 C 3.257812 -6.75 3.015625 -6.03125 3.015625 -5.125 C 3.015625 -4.226562 3.257812 -3.507812 3.75 -2.96875 C 4.238281 -2.425781 4.894531 -2.15625 5.71875 -2.15625 Z M 5.71875 -2.15625 "/></g></g></g><g fill="#000000" fill-opacity="1"><g transform="translate(23.394984, 19.233873)"><g><path d="M 6.09375 0 L 3.984375 -3.84375 L 3.375 -3.84375 L 3.375 0 L 0.90625 0 L 0.90625 -10.1875 L 5.0625 -10.1875 C 5.863281 -10.1875 6.546875 -10.046875 7.109375 -9.765625 C 7.679688 -9.484375 8.109375 -9.097656 8.390625 -8.609375 C 8.671875 -8.117188 8.8125 -7.578125 8.8125 -6.984375 C 8.8125 -6.304688 8.617188 -5.703125 8.234375 -5.171875 C 7.859375 -4.640625 7.296875 -4.257812 6.546875 -4.03125 L 8.890625 0 Z M 3.375 -5.609375 L 4.921875 -5.609375 C 5.378906 -5.609375 5.71875 -5.71875 5.9375 -5.9375 C 6.164062 -6.15625 6.28125 -6.46875 6.28125 -6.875 C 6.28125 -7.269531 6.164062 -7.578125 5.9375 -7.796875 C 5.71875 -8.015625 5.378906 -8.125 4.921875 -8.125 L 3.375 -8.125 Z M 3.375 -5.609375 "/></g></g></g><g fill="#000000" fill-opacity="1"><g transform="translate(32.416674, 19.233873)"><g><path d="M 9.71875 -10.1875 L 9.71875 0 L 7.25 0 L 7.25 -4.1875 L 3.375 -4.1875 L 3.375 0 L 0.90625 0 L 0.90625 -10.1875 L 3.375 -10.1875 L 3.375 -6.203125 L 7.25 -6.203125 L 7.25 -10.1875 Z M 9.71875 -10.1875 "/></g></g></g><g fill="#000000" fill-opacity="1"><g transform="translate(42.584252, 19.233873)"><g><path d="M 7.25 -1.796875 L 3.4375 -1.796875 L 2.828125 0 L 0.234375 0 L 3.921875 -10.1875 L 6.796875 -10.1875 L 10.484375 0 L 7.859375 0 Z M 6.609375 -3.71875 L 5.34375 -7.453125 L 4.09375 -3.71875 Z M 6.609375 -3.71875 "/></g></g></g><g fill="#000000" fill-opacity="1"><g transform="translate(52.838857, 19.233873)"><g><path d="M 4.71875 -10.1875 C 5.789062 -10.1875 6.726562 -9.972656 7.53125 -9.546875 C 8.332031 -9.117188 8.953125 -8.519531 9.390625 -7.75 C 9.835938 -6.988281 10.0625 -6.101562 10.0625 -5.09375 C 10.0625 -4.09375 9.835938 -3.207031 9.390625 -2.4375 C 8.953125 -1.664062 8.328125 -1.066406 7.515625 -0.640625 C 6.710938 -0.210938 5.78125 0 4.71875 0 L 0.90625 0 L 0.90625 -10.1875 Z M 4.5625 -2.140625 C 5.5 -2.140625 6.226562 -2.394531 6.75 -2.90625 C 7.269531 -3.425781 7.53125 -4.15625 7.53125 -5.09375 C 7.53125 -6.03125 7.269531 -6.757812 6.75 -7.28125 C 6.226562 -7.8125 5.5 -8.078125 4.5625 -8.078125 L 3.375 -8.078125 L 3.375 -2.140625 Z M 4.5625 -2.140625 "/></g></g></g><g fill="#000000" fill-opacity="1"><g transform="translate(62.948416, 19.233873)"><g><path d="M 2.0625 0.109375 C 1.625 0.109375 1.265625 -0.015625 0.984375 -0.265625 C 0.710938 -0.523438 0.578125 -0.84375 0.578125 -1.21875 C 0.578125 -1.601562 0.710938 -1.925781 0.984375 -2.1875 C 1.265625 -2.445312 1.625 -2.578125 2.0625 -2.578125 C 2.488281 -2.578125 2.835938 -2.445312 3.109375 -2.1875 C 3.390625 -1.925781 3.53125 -1.601562 3.53125 -1.21875 C 3.53125 -0.84375 3.390625 -0.523438 3.109375 -0.265625 C 2.835938 -0.015625 2.488281 0.109375 2.0625 0.109375 Z M 2.0625 0.109375 "/></g></g></g></svg>